<svg width="294" height="54" viewBox="0 0 294 54" fill="none" xmlns="http://www.w3.org/2000/svg">
<path d="M0 13.0432V0.931658C0 0.417117 0.41712 0 0.93166 0H33.0739C33.5884 0 34.0055 0.417119 34.0055 0.931659V20.5899C34.0055 20.829 33.9136 21.0589 33.7488 21.2321L20.5934 35.0564C20.3864 35.274 20.2969 35.578 20.3531 35.873L21.0491 39.5271C21.1336 39.9709 21.5243 40.2901 21.976 40.2844L57.2852 39.8402C57.8043 39.8337 58.2286 40.2527 58.2286 40.7718V52.8678C58.2286 53.3838 57.8092 53.8016 57.2932 53.7995L0.927931 53.574C0.41485 53.572 0 53.1555 0 52.6424V32.5582C0 32.2935 0.112622 32.0412 0.309734 31.8645L18.4507 15.6002C19.0871 15.0296 18.6835 13.9749 17.8288 13.9749H0.931658C0.417117 13.9749 0 13.5577 0 13.0432Z" fill="#FFCC00"/>
<path d="M58.1153 0V53.5484H45.0715V0H58.1153Z" fill="#FFCC00"/>
<path d="M293.458 0.599457V10.864H279.522V53.1958H266.71V10.864H250.911V0.599457H293.458Z" fill="white"/>
<path d="M252.543 0.599457V53.1958H239.731V0.599457H252.543Z" fill="white"/>
<path d="M210.99 0.599457C216.534 0.599457 221.379 1.69833 225.525 3.89609C229.671 6.09385 232.868 9.19069 235.115 13.1866C237.413 17.1326 238.562 21.7029 238.562 26.8976C238.562 32.0424 237.413 36.6127 235.115 40.6086C232.868 44.6045 229.646 47.7014 225.45 49.8991C221.304 52.0969 216.484 53.1958 210.99 53.1958H191.285V0.599457H210.99ZM210.166 42.1071C215.011 42.1071 218.782 40.7834 221.479 38.1362C224.176 35.4888 225.525 31.7427 225.525 26.8976C225.525 22.0526 224.176 18.2814 221.479 15.5842C218.782 12.8869 215.011 11.5383 210.166 11.5383H204.097V42.1071H210.166Z" fill="white"/>
<path d="M170.557 10.864V21.5031H187.715V31.393H170.557V42.9313H189.962V53.1958H157.745V0.599457H189.962V10.864H170.557Z" fill="white"/>
<path d="M143.109 53.1958L132.17 33.341H129.098V53.1958H116.287V0.599457H137.79C141.935 0.599457 145.457 1.32372 148.354 2.77224C151.301 4.22076 153.499 6.21872 154.947 8.76612C156.396 11.2636 157.12 14.0607 157.12 17.1576C157.12 20.654 156.121 23.7758 154.123 26.523C152.175 29.2702 149.278 31.2182 145.432 32.367L157.569 53.1958H143.109ZM129.098 24.2753H137.04C139.388 24.2753 141.136 23.7009 142.285 22.5521C143.484 21.4032 144.083 19.7799 144.083 17.682C144.083 15.6841 143.484 14.1107 142.285 12.9618C141.136 11.813 139.388 11.2386 137.04 11.2386H129.098V24.2753Z" fill="white"/>
<path d="M65.0454 26.8226C65.0454 21.6279 66.1693 17.0076 68.417 12.9618C70.6647 8.86595 73.7865 5.69419 77.7824 3.44648C81.8283 1.14883 86.3986 0 91.4934 0C97.737 0 103.082 1.64832 107.527 4.94495C111.973 8.24159 114.944 12.737 116.443 18.4312H102.357C101.308 16.2334 99.8099 14.5601 97.8619 13.4113C95.9639 12.2625 93.7911 11.6881 91.3436 11.6881C87.3976 11.6881 84.2009 13.0617 81.7534 15.8089C79.3059 18.5561 78.0821 22.2273 78.0821 26.8226C78.0821 31.4179 79.3059 35.0892 81.7534 37.8364C84.2009 40.5836 87.3976 41.9572 91.3436 41.9572C93.7911 41.9572 95.9639 41.3828 97.8619 40.2339C99.8099 39.0851 101.308 37.4118 102.357 35.2141H116.443C114.944 40.9082 111.973 45.4037 107.527 48.7003C103.082 51.947 97.737 53.5703 91.4934 53.5703C86.3986 53.5703 81.8283 52.4465 77.7824 50.1988C73.7865 47.9011 70.6647 44.7294 68.417 40.6835C66.1693 36.6376 65.0454 32.0173 65.0454 26.8226Z" fill="white"/>
</svg>
